<?xml version="1.0" encoding="utf-8"?>
<!-- Generator: Adobe Illustrator 22.0.1, SVG Export Plug-In . SVG Version: 6.00 Build 0)  -->
<svg version="1.1" id="Capa_1" xmlns="http://www.w3.org/2000/svg" xmlns:xlink="http://www.w3.org/1999/xlink" x="0px" y="0px"
	 viewBox="0 0 259.5 106" style="enable-background:new 0 0 259.5 106;" xml:space="preserve">
<style type="text/css">
	.st0{fill:#FF5C35;}
	.st1{fill:#3F3A60;}
	.st2{fill:#FF8A66;}
	.st3{fill:#FFC9B5;}
	.st4{fill:#655DC6;}
	.st5{fill:#8E83D5;}
	.st6{fill:#CBC3EB;}
	.st7{fill:#45A041;}
	.st8{fill:#78B870;}
	.st9{fill:#C0DEBA;}
	.st10{fill:#93BFEB;}
	.st11{fill:#6AAAE4;}
	.st12{fill:#CEE0F5;}
	.st13{fill:#FFBF3C;}
	.st14{fill:#FFCE72;}
	.st15{fill:#FFE7BD;}
	.st16{fill:#FFFFFF;}
	.st17{fill:#6C6685;}
	.st18{fill:none;stroke:#B3B3B3;stroke-width:0.1272;stroke-miterlimit:10;}
</style>
<g>
	<g>
		<path class="st4" d="M171.2,95.1V80.2h1v2.5c0.8-1.6,2.5-2.6,4.5-2.6c2.8,0.1,5.1,2,5.1,5.4c0,3.5-2.4,5.4-5.3,5.4
			c-1.8,0-3.4-0.9-4.3-2.6v6.8H171.2z M180.8,85.5c0-2.9-1.9-4.4-4.3-4.4c-2.4,0-4.2,1.8-4.2,4.4c0,2.6,1.8,4.4,4.2,4.4
			C178.9,89.9,180.8,88.4,180.8,85.5z"/>
		<path class="st4" d="M185.3,80.2l0,1.9c0.7-1.4,2.1-2,3.5-2c0.8,0,1.5,0.2,2.2,0.6l-0.5,0.8c-0.5-0.3-1.2-0.5-1.8-0.5
			c-1.9,0-3.4,1.6-3.4,3.5v6.1h-1V80.2H185.3z"/>
		<path class="st4" d="M192.2,85.5c0-3.3,2.4-5.4,5.3-5.4s5.3,2.1,5.3,5.4c0,3.3-2.4,5.4-5.3,5.4S192.2,88.8,192.2,85.5z
			 M201.8,85.5c0-2.7-1.9-4.5-4.3-4.5c-2.4,0-4.3,1.8-4.3,4.5c0,2.7,1.9,4.3,4.3,4.3C199.8,89.8,201.8,88.2,201.8,85.5z"/>
		<path class="st4" d="M213.7,89.2c-1.1,1.1-2.4,1.6-3.8,1.6c-2.9,0-5.4-2-5.4-5.3c0-3.3,2.3-5.3,5.4-5.3c1.4,0,2.8,0.5,3.8,1.6
			l-0.7,0.7c-0.8-0.8-2-1.2-3.1-1.2c-2.4,0-4.4,1.5-4.4,4.4c0,2.8,2,4.4,4.4,4.4c1.1,0,2.3-0.4,3.1-1.3L213.7,89.2z"/>
		<path class="st4" d="M215.7,85.5c0-3.1,2.4-5.4,5.3-5.4s5.6,1.8,5.2,5.9h-9.4c0.2,2.5,2.1,3.9,4.3,3.9c1.4,0,3-0.6,3.8-1.6
			l0.7,0.6c-1,1.3-2.8,2-4.5,2C218.1,90.8,215.7,88.8,215.7,85.5z M225.2,85c0-2.6-1.7-4-4.2-4c-2.2,0-4,1.5-4.3,4H225.2z"/>
		<path class="st4" d="M236,82.1c-1.1-0.9-2.1-1.1-3.3-1.1c-1.6,0-3.2,0.6-3.2,1.9c0,1.4,1.9,1.7,3.2,1.9c1.9,0.3,4.4,0.6,4.3,3.1
			c-0.1,2.3-2.5,2.9-4.3,2.9s-3.7-0.7-4.6-2.1l0.8-0.7c0.9,1.2,2.4,1.8,3.8,1.8c1.3,0,3.2-0.3,3.3-2c0-1.5-1.7-1.8-3.4-2.1
			c-2-0.3-4-0.7-4.1-2.8c0-2.1,2-2.9,4.1-2.9c1.5,0,2.9,0.4,3.9,1.4L236,82.1z"/>
		<path class="st4" d="M246.6,82.1c-1.1-0.9-2.1-1.1-3.3-1.1c-1.6,0-3.2,0.6-3.2,1.9c0,1.4,1.9,1.7,3.2,1.9c1.9,0.3,4.4,0.6,4.3,3.1
			c-0.1,2.3-2.5,2.9-4.3,2.9s-3.7-0.7-4.6-2.1l0.8-0.7c0.9,1.2,2.4,1.8,3.8,1.8c1.3,0,3.2-0.3,3.3-2c0-1.5-1.7-1.8-3.4-2.1
			c-2-0.3-4-0.7-4.1-2.8c0-2.1,2-2.9,4.1-2.9c1.5,0,2.9,0.4,3.9,1.4L246.6,82.1z"/>
	</g>
	<g>
		<g>
			<path class="st16" d="M98.3,65.5c-3,2.9-6.8,4.3-11,4.3c-10.7,0-15.3-7.4-15.3-14.9c0-7.6,4.9-15.2,15.3-15.2
				c3.9,0,7.6,1.5,10.6,4.4l-3.6,3.5c-1.9-1.9-4.5-2.7-7-2.7c-7,0-10,5.2-10,10c0,4.8,2.8,9.8,10,9.8c2.5,0,5.4-1,7.3-2.9L98.3,65.5
				z"/>
			<path class="st16" d="M121.3,58.9c0,5.9-4,10.6-10.6,10.6s-10.6-4.8-10.6-10.6c0-5.8,4-10.6,10.5-10.6
				C117.1,48.3,121.3,53.1,121.3,58.9z M105.1,58.9c0,3.1,1.9,6,5.5,6c3.7,0,5.5-2.9,5.5-6c0-3.1-2.1-6-5.5-6
				C107,52.9,105.1,55.9,105.1,58.9z"/>
			<path class="st16" d="M140.2,69.1V58.4c0-3.1-1.7-5.5-4.9-5.5c-3.1,0-5.2,2.6-5.2,5.7v10.4h-5V48.7h4.5l0.3,2.8
				c2.1-2,4.1-3.1,6.7-3.1c4.8,0,8.6,3.6,8.6,10v10.7H140.2z"/>
			<path class="st16" d="M164.9,69.1V58.4c0-3.1-1.7-5.5-4.9-5.5c-3.1,0-5.2,2.6-5.2,5.7v10.4h-5V48.7h4.5l0.3,2.8
				c2.1-2,4.1-3.1,6.7-3.1c4.8,0,8.6,3.6,8.6,10v10.7H164.9z"/>
			<path class="st16" d="M179,60.7c0.3,2.5,2.5,4.3,6.1,4.3c1.9,0,4.3-0.7,5.5-1.9l3.2,3.2c-2.1,2.2-5.7,3.3-8.8,3.3
				c-7,0-11.2-4.3-11.2-10.9c0-6.2,4.2-10.7,10.8-10.7c6.8,0,11.1,4.2,10.3,12.6H179z M190.1,56.5c-0.3-2.6-2.4-4-5.3-4
				c-2.7,0-5,1.3-5.7,4H190.1z"/>
			<path class="st16" d="M216.7,66.5c-2.4,2.3-4.8,3.2-7.8,3.2c-5.9,0-10.8-3.6-10.8-10.8c0-7.2,4.9-10.8,10.8-10.8
				c2.9,0,5.1,0.8,7.4,3l-3.2,3.3c-1.2-1.1-2.7-1.6-4.1-1.6c-3.4,0-5.9,2.5-5.9,6c0,3.9,2.6,6,5.8,6c1.6,0,3.2-0.5,4.5-1.7
				L216.7,66.5z"/>
			<path class="st16" d="M226.5,43v5.8h5.6v4.3h-5.7v8.8c0,1.9,1.1,2.9,2.6,2.9c0.8,0,1.7-0.2,2.4-0.6l1.4,4.3
				c-1.4,0.6-2.6,0.8-4.2,0.9c-4.4,0.2-7.3-2.4-7.3-7.4v-8.8h-3.8v-4.3h3.8v-5.2L226.5,43z"/>
		</g>
	</g>
	<g>
		<circle class="st17" cx="70.3" cy="16.1" r="5.1"/>
		<path class="st5" d="M57.9,10.9c0,16-13,29-29,29v-29H57.9z"/>
		<path class="st4" d="M0,68.9c0-16,13-29,29-29v29H0z"/>
		<path class="st17" d="M29,68.9c16,0,29-13,29-29H29V68.9z"/>
		<path class="st6" d="M29,11c-16,0-29,13-29,29h29V11z"/>
	</g>
</g>
</svg>
