<svg width="125" height="159" viewBox="0 0 125 159" fill="none" xmlns="http://www.w3.org/2000/svg">
<path d="M59.1 118.2C59.1 85.6001 85.6 59.1001 118.2 59.1001V118.2H59.1Z" fill="#6AAAE4"/>
<path d="M0 59.1C0 26.5 26.5 0 59.1 0V59.1H0Z" fill="#FF5C35"/>
<path d="M0 59.1001C0 91.7001 26.5 118.2 59.1 118.2V59.1001H0Z" fill="#6C6685"/>
<path d="M118.1 59.1C118.1 26.5 91.6 0 59 0V59.1H118.1Z" fill="#FFBF3C"/>
<path d="M124.3 140.9C124.3 141.6 123.8 142.3 123 142.3C122.1 142.3 121.7 141.7 121.7 140.9C121.7 140.2 122.2 139.5 123 139.5C123.8 139.5 124.3 140.1 124.3 140.9ZM123 142C123.7 142 124.2 141.5 124.2 140.8C124.2 140.1 123.8 139.6 123 139.6C122.3 139.6 121.8 140.1 121.8 140.8C121.8 141.5 122.2 142 123 142ZM123.1 140.1H122.5V141.5H122.7V141H123L123.5 141.5H123.7L123.3 141C123.7 140.9 123.7 140.1 123.1 140.1ZM122.6 140.3H123.1C123.5 140.3 123.5 140.9 123.1 140.9H122.7V140.3H122.6Z" fill="white"/>
<path d="M19.4 156.2C17.4 158.1 14.9 159 12.1 159C5 159 2 154.1 2 149.1C2 144.1 5.2 139 12.1 139C14.7 139 17.2 140 19.1 141.9L16.7 144.2C15.4 143 13.7 142.4 12.1 142.4C7.5 142.4 5.5 145.8 5.5 149C5.5 152.2 7.4 155.5 12.1 155.5C13.8 155.5 15.7 154.8 16.9 153.6L19.4 156.2Z" fill="white"/>
<path d="M23.8 153C24 154.7 25.5 155.9 27.8 155.9C29 155.9 30.6 155.4 31.4 154.6L33.5 156.7C32.1 158.2 29.8 158.9 27.7 158.9C23 158.9 20.3 156 20.3 151.7C20.3 147.6 23.1 144.6 27.5 144.6C32 144.6 34.8 147.4 34.3 152.9H23.8V153ZM31.1 150.3C30.9 148.5 29.5 147.7 27.6 147.7C25.8 147.7 24.3 148.6 23.8 150.3H31.1Z" fill="white"/>
<path d="M46.8 158.6V151.5C46.8 149.4 45.7 147.9 43.5 147.9C41.4 147.9 40.1 149.6 40.1 151.7V158.6H36.8V145.1H39.8L40 146.9C41.4 145.6 42.7 144.9 44.4 144.9C47.6 144.9 50.1 147.3 50.1 151.5V158.6H46.8Z" fill="white"/>
<path d="M57.2 141.3V145.1H60.9V148H57.2V153.8C57.2 155.1 57.9 155.7 59 155.7C59.5 155.7 60.1 155.5 60.6 155.3L61.5 158.1C60.5 158.5 59.7 158.6 58.7 158.7C55.8 158.8 53.9 157.1 53.9 153.8V148H51.3V145.1H53.8V141.6L57.2 141.3Z" fill="white"/>
<path d="M66.5 145.1L66.7 146.7C67.7 145 69.1 144.8 70.5 144.8C71.9 144.8 73.2 145.3 74 146.1L72.5 149C71.8 148.4 71.2 148.1 70.1 148.1C68.3 148.1 66.7 149 66.7 151.5V158.6H63.4V145.1H66.5Z" fill="white"/>
<path d="M78.9 141.3C78.9 143.9 75 143.9 75 141.3C75 138.7 78.9 138.7 78.9 141.3ZM75.3 145.1V158.6H78.6V145.1H75.3Z" fill="white"/>
<path d="M84.9 139.5V147C85.7 145.6 87.9 144.8 89.3 144.8C93.2 144.8 96.2 147.2 96.2 151.9C96.2 156.3 93.2 159 89.3 159C87.7 159 86 158.5 85 156.8L84.8 158.7H81.7V139.6H84.9V139.5ZM85.2 151.8C85.2 154.2 87 155.8 89.1 155.8C91.2 155.8 92.9 154.2 92.9 151.8C92.9 149.4 91.2 147.9 89.1 147.9C87 147.9 85.2 149.5 85.2 151.8Z" fill="white"/>
<path d="M109.4 145.1H112.6V158.6H109.5L109.3 156.6C108.5 158.2 106.4 159 104.9 159C100.9 159 98 156.6 98 151.8C98 147.1 101.1 144.7 105 144.7C106.8 144.7 108.5 145.5 109.3 146.9L109.4 145.1ZM101.3 151.8C101.3 154.4 103.1 155.9 105.3 155.9C110.6 155.9 110.6 147.7 105.3 147.7C103.1 147.8 101.3 149.3 101.3 151.8Z" fill="white"/>
<path d="M118.7 139.5V158.6H115.4V139.5H118.7Z" fill="white"/>
</svg>
