<svg xmlns="http://www.w3.org/2000/svg" width="29.281" height="29.281" viewBox="0 0 29.281 29.281">
  <g id="Grupo_974" data-name="Grupo 974" transform="translate(-894.801 -7223.014)">
    <rect id="Rectángulo_173" data-name="Rectángulo 173" width="29.281" height="29.281" rx="14.641" transform="translate(894.801 7223.014)" fill="#fff"/>
    <g id="email_black_24dp" transform="translate(902.572 7230.785)">
      <path id="Trazado_589" data-name="Trazado 589" d="M0,0H14.628V14.628H0Z" fill="none"/>
      <path id="Trazado_590" data-name="Trazado 590" d="M14.19,5.219A1.223,1.223,0,0,0,12.971,4H3.219A1.223,1.223,0,0,0,2,5.219v7.314a1.223,1.223,0,0,0,1.219,1.219h9.752a1.223,1.223,0,0,0,1.219-1.219Zm-1.219,0L8.1,8.267,3.219,5.219Zm0,7.314H3.219v-6.1L8.1,9.486l4.876-3.048Z" transform="translate(-0.781 -1.562)" fill="#245086"/>
    </g>
  </g>
</svg>
