<svg xmlns="http://www.w3.org/2000/svg" width="29.281" height="29.281" viewBox="0 0 29.281 29.281">
  <g id="Grupo_975" data-name="Grupo 975" transform="translate(-894.801 -7187.014)">
    <rect id="Rectángulo_172" data-name="Rectángulo 172" width="29.281" height="29.281" rx="14.641" transform="translate(894.801 7187.014)" fill="#fff"/>
    <g id="phone_in_talk_black_24dp" transform="translate(894.801 7193.897)">
      <path id="Trazado_26" data-name="Trazado 26" d="M0,0H15.515V15.515H0Z" transform="translate(0)" fill="none"/>
      <path id="Trazado_27" data-name="Trazado 27" d="M10.758,8.818h1.293A3.234,3.234,0,0,0,8.818,5.586V6.879A1.937,1.937,0,0,1,10.758,8.818Zm2.586,0h1.293A5.819,5.819,0,0,0,8.818,3V4.293A4.522,4.522,0,0,1,13.343,8.818Zm.646,2.263a7.344,7.344,0,0,1-2.308-.368.721.721,0,0,0-.2-.032.662.662,0,0,0-.459.187L9.6,12.29A9.726,9.726,0,0,1,5.34,8.03L6.762,6.6a.621.621,0,0,0,.162-.646,7.344,7.344,0,0,1-.368-2.308A.648.648,0,0,0,5.909,3H3.646A.648.648,0,0,0,3,3.646a10.989,10.989,0,0,0,10.99,10.99.648.648,0,0,0,.646-.646V11.727A.648.648,0,0,0,13.99,11.081ZM4.312,4.293h.97a8.912,8.912,0,0,0,.291,1.668L4.8,6.743a9.922,9.922,0,0,1-.485-2.45Zm9.031,9.031a9.633,9.633,0,0,1-2.457-.491l.776-.776a8.244,8.244,0,0,0,1.681.291Z" transform="translate(5.822 -1.061)" fill="#245086"/>
    </g>
  </g>
</svg>
